Coordinates
version=1
nRows=14
nColumns=24
inDegrees=yes

Units are S.I. units (second, meters, Newtons, ...)
Angles are in degrees.

endheader
time	pelvis_tilt	pelvis_list	pelvis_rotation	pelvis_tx	pelvis_ty	pelvis_tz	hip_flexion_r	hip_adduction_r	hip_rotation_r	knee_angle_r	ankle_angle_r	subtalar_angle_r	mtp_angle_r	hip_flexion_l	hip_adduction_l	hip_rotation_l	knee_angle_l	ankle_angle_l	subtalar_angle_l	mtp_angle_l	lumbar_extension	lumbar_bending	lumbar_rotation
      3.05500000	    -11.35403086	     -1.79146750	      7.84527345	     -1.87588397	     -0.03845347	     -0.26894594	     35.98762265	     -4.11399290	    -14.63904849	    -11.25754220	     -3.42027048	     -0.09281112	     11.72345167	     -4.27586684	     -0.45559877	     -2.32515581	    -16.43362328	      8.57573596	     -2.64839743	     -4.75472808	      6.15881882	      1.38610023	    -11.24859687
      3.06000000	    -11.29956669	     -2.02640962	      7.74601586	     -1.86751761	     -0.03893281	     -0.26799306	     35.83116659	     -3.74982503	    -14.50415060	    -11.71472783	     -4.25247607	     -0.51553753	     12.55799219	     -4.45047749	     -0.95066234	     -2.80160818	    -17.03971986	      7.90529981	     -2.09212958	     -3.51727819	      6.28097022	      1.62233174	    -11.12087900
      3.06500000	    -11.41032318	     -2.31406330	      7.87052873	     -1.85914788	     -0.03939868	     -0.26744549	     35.82533970	     -3.52763446	    -14.70933970	    -12.21117986	     -5.00434107	     -0.69189882	     12.59133873	     -4.36199643	     -1.45020657	     -2.76233205	    -17.76569824	      7.31029187	     -1.73421421	     -3.42126014	      6.61264917	      1.86819171	    -11.26733151
      3.07000000	    -11.46413633	     -2.60743377	      7.83793035	     -1.85087027	     -0.03979239	     -0.26647849	     35.77880882	     -3.15272081	    -14.58353695	    -12.65171038	     -6.09877637	     -1.32188493	     12.75818992	     -4.28418790	     -2.00994068	     -3.11594623	    -18.58412724	      6.73569471	     -1.07969753	     -3.02042053	      6.85234523	      2.12501139	    -11.26836691
      3.07500000	    -11.52555101	     -2.95722265	      7.76657302	     -1.84248951	     -0.04007733	     -0.26557107	     35.73362327	     -2.70925613	    -14.45208539	    -13.06416912	     -7.28562747	     -2.00232461	     12.88064966	     -4.19122995	     -2.61136222	     -3.40262934	    -19.39613851	      5.99404976	     -0.60399230	     -2.60176652	      7.13023769	      2.46099079	    -11.21279916
      3.08000000	    -11.59042487	     -3.32343841	      7.64580025	     -1.83411719	     -0.04027939	     -0.26457435	     35.70155621	     -2.21248286	    -14.22026746	    -13.47319163	     -8.50060427	     -2.80733386	     12.94732020	     -4.05485449	     -3.23740883	     -3.74829400	    -20.26406047	      5.14258099	     -0.13277932	     -2.08930449	      7.41080279	      2.81521426	    -11.11646503
      3.08500000	    -11.58301025	     -3.73602500	      7.46829513	     -1.82565890	     -0.04032007	     -0.26354988	     35.58023269	     -1.62617076	    -13.93144642	    -13.83609794	     -9.80301084	     -3.71780730	     13.73134531	     -4.00933679	     -3.93171126	     -4.18133624	    -21.00075578	      3.49276056	     -0.00460983	      1.30904011	      7.62979409	      3.24531359	    -10.94515087
      3.09000000	    -11.71584619	     -4.12480622	      7.34373967	     -1.81734905	     -0.04041155	     -0.26255823	     35.64157138	     -1.10901589	    -13.58469644	    -14.30708632	    -10.80589968	     -4.62830532	     13.45151332	     -3.67790477	     -4.57365129	     -4.45878275	    -22.04867325	      2.52509401	      0.41770549	      1.33596160	      7.98224107	      3.61730933	    -10.87684146
      3.09500000	    -11.79626595	     -4.50532511	      7.12570384	     -1.80902196	     -0.04039846	     -0.26143782	     35.65314831	     -0.52038283	    -13.08850276	    -14.80023866	    -11.65588344	     -5.59451925	     13.09234858	     -3.38430140	     -5.22209103	     -4.85472467	    -23.12731158	      1.37571299	      0.81164448	      1.57141606	      8.27148647	      4.00775458	    -10.70455060
      3.10000000	    -11.88128035	     -4.89117115	      6.93093337	     -1.80070838	     -0.04031604	     -0.26034154	     35.66458657	      0.06489946	    -12.58586017	    -15.32089427	    -12.31411632	     -6.55008714	     12.71392368	     -3.02672751	     -5.87530778	     -5.17288665	    -24.26969585	      0.05828025	      1.09745621	      1.86860562	      8.56409015	      4.39353612	    -10.55945000
      3.10500000	    -11.89242889	     -5.27652188	      6.66376794	     -1.79237292	     -0.04012119	     -0.25910472	     35.60661868	      0.71146911	    -12.08316220	    -15.92300343	    -12.47458373	     -7.22797914	     11.23809307	     -2.74951620	     -6.56303789	     -5.63858416	    -25.30801832	     -2.07583094	      1.08551408	      5.03678031	      8.76931027	      4.79989352	    -10.32417043
      3.11000000	    -12.00206646	     -5.59926900	      6.45882752	     -1.78411020	     -0.03998566	     -0.25800045	     35.63034800	      1.24567066	    -11.60003660	    -16.48812645	    -12.67380414	     -8.01905708	     11.06319441	     -2.25278903	     -7.14527168	     -5.89306105	    -26.60850747	     -3.62194603	      1.26188734	      4.93349851	      9.07410140	      5.12388818	    -10.19853519
      3.11500000	    -12.08189905	     -5.88378522	      6.20222282	     -1.77590430	     -0.03979584	     -0.25680730	     35.61269329	      1.78669042	    -11.10567671	    -17.05775951	    -12.68096725	     -8.72300637	     10.89701808	     -1.75057660	     -7.69600792	     -6.19186188	    -27.95606970	     -5.33900602	      1.36968129	      4.95204296	      9.32371938	      5.42133660	    -10.00697662
      3.12000000	    -12.15954320	     -6.14250407	      5.93760232	     -1.76775730	     -0.03956639	     -0.25558539	     35.56972432	      2.31313560	    -10.65038210	    -17.60959245	    -12.52013598	     -9.32505998	     10.75291452	     -1.19764961	     -8.21880157	     -6.45147034	    -29.35771086	     -7.21121720	      1.37894774	      5.04239564	      9.55526625	      5.69232529	     -9.80947274
